<?xml version="1.0" encoding="utf-8"?>
<!-- Generator: Adobe Illustrator 19.2.1, SVG Export Plug-In . SVG Version: 6.00 Build 0)  -->
<svg version="1.1" id="Capa_1" xmlns="http://www.w3.org/2000/svg" xmlns:xlink="http://www.w3.org/1999/xlink" x="0px" y="0px"
	 viewBox="0 0 841.9 595.3" style="enable-background:new 0 0 841.9 595.3;" xml:space="preserve">
<path d="M260.5,254.9h46.2v66.6c0,33.6-16.8,52.8-49.2,52.8s-49.2-19.2-49.2-52.8V212.3c0-33.6,16.8-52.8,49.2-52.8
	s49.2,19.2,49.2,52.8v20.4h-31.2v-22.5c0-15-6.6-20.7-17.1-20.7c-10.5,0-17.1,5.7-17.1,20.7v113.4c0,15,6.6,20.4,17.1,20.4
	c10.5,0,17.1-5.4,17.1-20.4v-38.7h-15V254.9z"/>
<polygon points="406.3,250.4 361,250.4 328,250.4 328,280.4 406.3,280.4 "/>
<rect x="328" y="341.9" width="90" height="30"/>
<polygon points="328,161.9 328,191.9 361,191.9 418,191.9 418,161.9 "/>
<path d="M467.8,219.8v152.1h-29.7v-210h41.4l33.9,125.7V161.9h29.4v210h-33.9L467.8,219.8z"/>
</svg>
